<svg version="1.2" stroke="none" xmlns="http://www.w3.org/2000/svg" viewBox="0 0 1765 173" width="1765" height="100">
	<title>Merkle_Logo_Blue-svg</title>
	<style>
		.s0 { fill: #ffffff } 
		.s1 { fill: #f23a1d } 
	</style>
	<path id="Layer" class="s0" d="m315.3 173h-36.7v-102.8l-55.1 55.1-55.2-55.1v102.8h-36.7v-173h19.5l72.8 72.8 71.9-72.8h19.5z"/>
	<path id="Layer" class="s1" d="m94.9 77.7h-94.9l94.9 94.9z"/>
	<path id="STORIES" class="s0" aria-label="STORIES"  d="m441.1 173c-17.2 0-34-3.4-50.3-10.2-16.1-7-26.3-16.1-30.7-27.4 0 0 28.2-17.2 28.2-17.2 9.5 12.8 31.4 20.8 53.6 20.8 15.1 0 27.2-2.1 36.1-6.1 6.1-3.2 9.3-7.2 9.1-12.5 0-5.3-3-9.2-8.7-11.7-5.3-2.1-17-4.2-35.2-6.6-24.6-2.5-41.1-5.5-49.4-8.9-19.7-8.3-29.3-21.4-28.2-39.6 0-19.1 9.5-33.4 28.8-42.9 13.8-6.6 31.2-9.8 52.4-9.8 37.6 0 62.6 12.6 71.7 36.5 0 0-31 16.4-31 16.4-6.1-14.2-20.7-21.2-43.4-21.2-10.2 0-20 1.6-29.1 4.8-9.1 3.2-13.8 7.9-14 13.8-0.2 11 7.8 14.9 27.1 18 4.3 0.7 9.8 1.3 16.4 2 0 0 14 1.4 14 1.4 16.3 2 28.2 4.5 35.6 7.5 19.7 8 29.3 21.4 28.2 40.3 0 0 0 2.1 0 2.1-0.4 11.2-4.6 21-12.5 28.8-7.8 7.9-17.8 13.4-29.5 16.8-11.6 3.2-24.6 4.9-39.2 4.9zm201.1-3c0 0 0-132.1 0-132.1 0 0-65.8 0-65.8 0 0 0 0-34.2 0-34.2 0 0 167.4 0 167.4 0 0 0 0 34.2 0 34.2 0 0-65.6 0-65.6 0 0 0 0 132.1 0 132.1 0 0-36 0-36 0zm244.5 0.8c-25.2 0-47.1-8-65.1-24.3-18-16.4-26.9-36.1-26.9-59.6 0-23.6 9.1-43.3 27.1-59.7 18.1-16.3 39.7-24.3 64.9-24.3 25.3 0 46.9 8.2 64.9 24.6 18.1 16.3 27.2 36 27.2 59.4 0 23.3-9.1 43.2-27.2 59.6-18 16.3-39.6 24.3-64.9 24.3zm56-83.9c0-13.8-5.5-25.5-16.3-35-10.8-9.6-24.2-14.5-39.7-14.5-15.5 0-28.8 4.9-39.6 14.5-10.9 9.5-16.4 21.2-16.4 35 0 13.5 5.5 25.2 16.4 35 11 9.5 24.1 14.4 39.6 14.4 15.5 0 28.7-4.9 39.5-14.4 11-9.8 16.5-21.5 16.5-35zm224.2 83.1c0 0-50.7-57.7-50.7-57.7 0 0-37.7 0-37.7 0 0 0 0 57.7 0 57.7 0 0-36.1 0-36.1 0 0 0 0-166.3 0-166.3 0 0 108 0 108 0 15 0 28.2 5.3 39 15.9 10.8 10.6 16.3 23.3 16.3 38.4 0 13.4-4.4 24.8-13.1 34.8-8.7 9.7-19.7 15.7-33.1 17.6 0 0 52.4 59.6 52.4 59.6 0 0-45 0-45 0zm-88.4-91c0 0 68.1 0 68.1 0 14.2 0 23.1-9.5 23.1-21.6 0-12.1-8.9-21.7-23.1-21.7 0 0-68.1 0-68.1 0 0 0 0 43.3 0 43.3zm231-75.3c0 0 0 166.3 0 166.3 0 0-36.1 0-36.1 0 0 0 0-166.3 0-166.3 0 0 36.1 0 36.1 0zm229.3 132.6c0 0 0 33.7 0 33.7 0 0-157.2 0-157.2 0 0 0 0-166.3 0-166.3 0 0 157.2 0 157.2 0 0 0 0 33.7 0 33.7 0 0-121.2 0-121.2 0 0 0 0 33.3 0 33.3 0 0 81.7 0 81.7 0 0 0 0 32.1 0 32.1 0 0-81.7 0-81.7 0 0 0 0 33.5 0 33.5 0 0 121.2 0 121.2 0zm143.6 36.7c-17.2 0-34-3.4-50.3-10.2-16.1-7-26.3-16.1-30.8-27.4 0 0 28.2-17.2 28.2-17.2 9.6 12.8 31.4 20.8 53.7 20.8 15.1 0 27.2-2.1 36.1-6.1 6.1-3.2 9.3-7.2 9.1-12.5 0-5.3-3-9.2-8.7-11.7-5.3-2.1-17-4.2-35.2-6.6-24.6-2.5-41.2-5.5-49.4-8.9-19.8-8.3-29.3-21.4-28.3-39.6 0-19.1 9.6-33.4 28.9-42.9 13.8-6.6 31.2-9.8 52.4-9.8 37.5 0 62.6 12.6 71.7 36.5 0 0-31 16.4-31 16.4-6.1-14.2-20.8-21.2-43.5-21.2-10.2 0-19.9 1.6-29 4.8-9.2 3.2-13.8 7.9-14 13.8-0.2 11 7.8 14.9 27.1 18 4.3 0.7 9.8 1.3 16.4 2 0 0 14 1.4 14 1.4 16.3 2 28.2 4.5 35.6 7.5 19.7 8 29.3 21.4 28.2 40.3 0 0 0 2.1 0 2.1-0.4 11.2-4.7 21-12.5 28.8-7.9 7.9-17.8 13.4-29.5 16.8-11.7 3.2-24.6 4.9-39.2 4.9z"/>
</svg>